<?xml version="1.0" standalone="no"?>
<!DOCTYPE svg PUBLIC "-//W3C//DTD SVG 20010904//EN"
 "http://www.w3.org/TR/2001/REC-SVG-20010904/DTD/svg10.dtd">
<svg version="1.0" xmlns="http://www.w3.org/2000/svg"
 width="500.000000pt" height="500.000000pt" viewBox="0 0 500.000000 500.000000"
 preserveAspectRatio="xMidYMid meet">
<metadata>
Created by potrace 1.11, written by Peter Selinger 2001-2013
</metadata>
<g transform="translate(0.000000,500.000000) scale(0.100000,-0.100000)"
fill="#000000" stroke="none">
<path d="M1825 3814 c-241 -44 -445 -154 -566 -307 -51 -63 -102 -169 -126
-257 -24 -91 -24 -320 1 -410 55 -200 209 -360 446 -465 47 -20 199 -75 339
-121 139 -46 284 -100 321 -120 144 -75 205 -174 181 -292 -26 -132 -131 -202
-301 -202 -170 0 -291 91 -322 242 l-12 58 -343 0 -344 0 7 -62 c19 -179 85
-325 201 -449 177 -187 414 -283 748 -304 263 -16 511 43 695 166 240 161 362
403 347 689 -10 178 -61 296 -180 418 -117 119 -252 190 -584 307 -333 117
-433 163 -487 227 -61 71 -72 178 -26 267 69 137 304 161 453 47 41 -31 84
-107 93 -164 l7 -42 346 2 346 3 -3 45 c-5 80 -41 209 -79 286 -114 231 -352
388 -663 439 -120 19 -385 19 -495 -1z"/>
<path d="M3564 1571 c-75 -34 -134 -126 -134 -211 0 -85 59 -177 134 -211 55
-25 146 -25 194 0 139 72 174 245 73 362 -45 53 -101 79 -171 79 -32 0 -72 -8
-96 -19z"/>
</g>
</svg>
