<svg version="1.1" viewBox="0.0 0.0 480.0 480.0" fill="none" stroke="none" stroke-linecap="square" stroke-miterlimit="10" xmlns:xlink="http://www.w3.org/1999/xlink" xmlns="http://www.w3.org/2000/svg"><clipPath id="p.0"><path d="m0 0l480.0 0l0 480.0l-480.0 0l0 -480.0z" clip-rule="nonzero"/></clipPath><g clip-path="url(#p.0)"><path fill="#000000" fill-opacity="0.0" d="m0 0l480.0 0l0 480.0l-480.0 0z" fill-rule="evenodd"/><path fill="#000000" d="m16.51181 240.0l0 0c0 -54.20218 43.939552 -98.14174 98.14173 -98.14174l0 0c26.028801 0 50.99154 10.339905 69.39669 28.745056c18.405136 18.405136 28.74504 43.367874 28.74504 69.39668l0 0c0 54.20218 -43.939545 98.14172 -98.14173 98.14172l0 0c-54.20218 0 -98.14173 -43.939545 -98.14173 -98.14172z" fill-rule="evenodd"/><path fill="#000000" d="m267.9265 240.0l0 0c0 -54.20218 43.939545 -98.14174 98.14172 -98.14174l0 0c26.028809 0 50.991547 10.339905 69.3967 28.745056c18.40512 18.405136 28.745026 43.367874 28.745026 69.39668l0 0c0 54.20218 -43.939545 98.14172 -98.14172 98.14172l0 0c-54.20218 0 -98.14172 -43.939545 -98.14172 -98.14172z" fill-rule="evenodd"/></g></svg>