<svg version="1.1" viewBox="0.0 0.0 480.0 480.0" fill="none" stroke="none" stroke-linecap="square" stroke-miterlimit="10" xmlns:xlink="http://www.w3.org/1999/xlink" xmlns="http://www.w3.org/2000/svg"><clipPath id="p.0"><path d="m0 0l480.0 0l0 480.0l-480.0 0l0 -480.0z" clip-rule="nonzero"/></clipPath><g clip-path="url(#p.0)"><path fill="#000000" fill-opacity="0.0" d="m0 0l480.0 0l0 480.0l-480.0 0z" fill-rule="evenodd"/><path fill="#000000" d="m55.374672 320.2945l34.33941 0l0 34.339417l-34.33941 0z" fill-rule="evenodd"/><path fill="#000000" d="m102.84265 320.2945l34.3394 0l0 34.339417l-34.3394 0z" fill-rule="evenodd"/><path fill="#000000" d="m150.31062 320.2945l34.3394 0l0 34.339417l-34.3394 0z" fill-rule="evenodd"/><path fill="#000000" d="m102.84265 271.56836l34.3394 0l0 34.339417l-34.3394 0z" fill-rule="evenodd"/><path fill="#000000" d="m150.31062 271.56836l34.3394 0l0 34.339417l-34.3394 0z" fill-rule="evenodd"/><path fill="#000000" d="m102.84265 222.84222l34.3394 0l0 34.339417l-34.3394 0z" fill-rule="evenodd"/><path fill="#000000" d="m150.31062 222.84222l34.3394 0l0 34.339417l-34.3394 0z" fill-rule="evenodd"/><path fill="#000000" d="m200.41457 125.36604l34.339417 0l0 34.3394l-34.339417 0z" fill-rule="evenodd"/><path fill="#000000" d="m247.88254 125.36604l34.339417 0l0 34.3394l-34.339417 0z" fill-rule="evenodd"/><path fill="#000000" d="m200.41457 76.63991l34.339417 0l0 34.33941l-34.339417 0z" fill-rule="evenodd"/><path fill="#000000" d="m247.88254 76.63991l34.339417 0l0 34.33941l-34.339417 0z" fill-rule="evenodd"/><path fill="#000000" d="m200.41457 27.91378l34.339417 0l0 34.33941l-34.339417 0z" fill-rule="evenodd"/><path fill="#000000" d="m247.88254 27.91378l34.339417 0l0 34.33941l-34.339417 0z" fill-rule="evenodd"/><path fill="#000000" d="m295.35052 76.63991l34.339386 0l0 34.33941l-34.339386 0z" fill-rule="evenodd"/><path fill="#000000" d="m247.88254 271.54443l34.339417 0l0 34.339386l-34.339417 0z" fill-rule="evenodd"/><path fill="#000000" d="m247.88254 222.8183l34.339417 0l0 34.339417l-34.339417 0z" fill-rule="evenodd"/><path fill="#000000" d="m247.88254 174.09216l34.339417 0l0 34.339417l-34.339417 0z" fill-rule="evenodd"/><path fill="#000000" d="m200.41457 368.99667l34.339417 0l0 34.339417l-34.339417 0z" fill-rule="evenodd"/><path fill="#000000" d="m247.88254 368.99667l34.339417 0l0 34.339417l-34.339417 0z" fill-rule="evenodd"/><path fill="#000000" d="m247.88254 320.27057l34.339417 0l0 34.339386l-34.339417 0z" fill-rule="evenodd"/><path fill="#000000" d="m295.35052 174.09216l34.339386 0l0 34.339417l-34.339386 0z" fill-rule="evenodd"/><path fill="#000000" d="m295.35052 222.8183l34.339386 0l0 34.339417l-34.339386 0z" fill-rule="evenodd"/><path fill="#000000" d="m295.35052 271.54443l34.339386 0l0 34.339386l-34.339386 0z" fill-rule="evenodd"/><path fill="#000000" d="m295.35052 320.27057l34.339386 0l0 34.339386l-34.339386 0z" fill-rule="evenodd"/><path fill="#000000" d="m295.35052 368.99667l34.339386 0l0 34.339417l-34.339386 0z" fill-rule="evenodd"/><path fill="#000000" d="m200.94846 417.7228l34.339417 0l0 34.339417l-34.339417 0z" fill-rule="evenodd"/><path fill="#000000" d="m150.31117 417.74673l34.3394 0l0 34.339417l-34.3394 0z" fill-rule="evenodd"/><path fill="#000000" d="m342.81848 271.56836l34.339417 0l0 34.339417l-34.339417 0z" fill-rule="evenodd"/><path fill="#000000" d="m342.81848 320.2945l34.339417 0l0 34.339417l-34.339417 0z" fill-rule="evenodd"/><path fill="#000000" d="m342.81848 369.02063l34.339417 0l0 34.339386l-34.339417 0z" fill-rule="evenodd"/><path fill="#000000" d="m390.28647 320.27057l34.339417 0l0 34.339386l-34.339417 0z" fill-rule="evenodd"/></g></svg>